<mxfile host="app.diagrams.net" modified="2024-05-10T15:11:03.569Z" agent="Mozilla/5.0 (Macintosh; Intel Mac OS X 10_15_7) AppleWebKit/537.36 (KHTML, like Gecko) Chrome/124.0.0.0 Safari/537.36" etag="T1tRiEyMQjIEyZNdFqc5" version="24.3.1" type="github">
  <diagram name="페이지-1" id="PjPZ05YUINHdzqjA7pK_">
    <mxGraphModel dx="950" dy="760" grid="0" gridSize="10" guides="1" tooltips="1" connect="1" arrows="1" fold="1" page="1" pageScale="1" pageWidth="1169" pageHeight="827" math="0" shadow="0">
      <root>
        <mxCell id="0" />
        <mxCell id="1" parent="0" />
        <mxCell id="KX-zCoureah62m9yQOTJ-6" value="" style="rounded=0;orthogonalLoop=1;jettySize=auto;html=1;endArrow=none;endFill=0;shape=link;" parent="1" source="KX-zCoureah62m9yQOTJ-1" target="KX-zCoureah62m9yQOTJ-5" edge="1">
          <mxGeometry relative="1" as="geometry" />
        </mxCell>
        <mxCell id="KX-zCoureah62m9yQOTJ-1" value="EMPLOYEE" style="whiteSpace=wrap;html=1;align=center;" parent="1" vertex="1">
          <mxGeometry x="309" y="137" width="100" height="40" as="geometry" />
        </mxCell>
        <mxCell id="KX-zCoureah62m9yQOTJ-10" value="" style="edgeStyle=orthogonalEdgeStyle;rounded=0;orthogonalLoop=1;jettySize=auto;html=1;shape=link;" parent="1" source="KX-zCoureah62m9yQOTJ-2" target="KX-zCoureah62m9yQOTJ-4" edge="1">
          <mxGeometry relative="1" as="geometry" />
        </mxCell>
        <mxCell id="KX-zCoureah62m9yQOTJ-2" value="근무자" style="whiteSpace=wrap;html=1;align=center;" parent="1" vertex="1">
          <mxGeometry x="309" y="348" width="100" height="40" as="geometry" />
        </mxCell>
        <mxCell id="KX-zCoureah62m9yQOTJ-17" value="" style="edgeStyle=orthogonalEdgeStyle;rounded=0;orthogonalLoop=1;jettySize=auto;html=1;shape=link;" parent="1" source="KX-zCoureah62m9yQOTJ-3" target="KX-zCoureah62m9yQOTJ-14" edge="1">
          <mxGeometry relative="1" as="geometry" />
        </mxCell>
        <mxCell id="KX-zCoureah62m9yQOTJ-3" value="근무일" style="whiteSpace=wrap;html=1;align=center;" parent="1" vertex="1">
          <mxGeometry x="749" y="348" width="100" height="40" as="geometry" />
        </mxCell>
        <mxCell id="KX-zCoureah62m9yQOTJ-11" value="" style="edgeStyle=orthogonalEdgeStyle;rounded=0;orthogonalLoop=1;jettySize=auto;html=1;endArrow=none;endFill=0;" parent="1" source="KX-zCoureah62m9yQOTJ-4" target="KX-zCoureah62m9yQOTJ-3" edge="1">
          <mxGeometry relative="1" as="geometry" />
        </mxCell>
        <mxCell id="KX-zCoureah62m9yQOTJ-4" value="할당되다" style="shape=rhombus;perimeter=rhombusPerimeter;whiteSpace=wrap;html=1;align=center;" parent="1" vertex="1">
          <mxGeometry x="519" y="338" width="120" height="60" as="geometry" />
        </mxCell>
        <mxCell id="KX-zCoureah62m9yQOTJ-7" value="" style="edgeStyle=orthogonalEdgeStyle;rounded=0;orthogonalLoop=1;jettySize=auto;html=1;shape=link;" parent="1" source="KX-zCoureah62m9yQOTJ-5" target="KX-zCoureah62m9yQOTJ-2" edge="1">
          <mxGeometry relative="1" as="geometry" />
        </mxCell>
        <mxCell id="KX-zCoureah62m9yQOTJ-5" value="관리하다" style="shape=rhombus;perimeter=rhombusPerimeter;whiteSpace=wrap;html=1;align=center;" parent="1" vertex="1">
          <mxGeometry x="299" y="233" width="120" height="60" as="geometry" />
        </mxCell>
        <mxCell id="KX-zCoureah62m9yQOTJ-8" value="N" style="text;html=1;align=center;verticalAlign=middle;resizable=0;points=[];autosize=1;strokeColor=none;fillColor=none;" parent="1" vertex="1">
          <mxGeometry x="371" y="305" width="27" height="26" as="geometry" />
        </mxCell>
        <mxCell id="KX-zCoureah62m9yQOTJ-9" value="1" style="text;html=1;align=center;verticalAlign=middle;resizable=0;points=[];autosize=1;strokeColor=none;fillColor=none;" parent="1" vertex="1">
          <mxGeometry x="372" y="192" width="25" height="26" as="geometry" />
        </mxCell>
        <mxCell id="KX-zCoureah62m9yQOTJ-12" value="N" style="text;html=1;align=center;verticalAlign=middle;resizable=0;points=[];autosize=1;strokeColor=none;fillColor=none;" parent="1" vertex="1">
          <mxGeometry x="675" y="376" width="27" height="26" as="geometry" />
        </mxCell>
        <mxCell id="KX-zCoureah62m9yQOTJ-13" value="M" style="text;html=1;align=center;verticalAlign=middle;resizable=0;points=[];autosize=1;strokeColor=none;fillColor=none;" parent="1" vertex="1">
          <mxGeometry x="450" y="376" width="28" height="26" as="geometry" />
        </mxCell>
        <mxCell id="KX-zCoureah62m9yQOTJ-18" value="" style="edgeStyle=orthogonalEdgeStyle;rounded=0;orthogonalLoop=1;jettySize=auto;html=1;endArrow=none;endFill=0;" parent="1" source="KX-zCoureah62m9yQOTJ-14" target="KX-zCoureah62m9yQOTJ-16" edge="1">
          <mxGeometry relative="1" as="geometry" />
        </mxCell>
        <mxCell id="KX-zCoureah62m9yQOTJ-14" value="시간대" style="shape=rhombus;double=1;perimeter=rhombusPerimeter;whiteSpace=wrap;html=1;align=center;" parent="1" vertex="1">
          <mxGeometry x="739" y="471" width="120" height="60" as="geometry" />
        </mxCell>
        <mxCell id="KX-zCoureah62m9yQOTJ-16" value="시간대" style="shape=ext;margin=3;double=1;whiteSpace=wrap;html=1;align=center;" parent="1" vertex="1">
          <mxGeometry x="749" y="604" width="100" height="40" as="geometry" />
        </mxCell>
        <mxCell id="KX-zCoureah62m9yQOTJ-24" style="rounded=0;orthogonalLoop=1;jettySize=auto;html=1;endArrow=none;endFill=0;entryX=0.5;entryY=0;entryDx=0;entryDy=0;" parent="1" source="KX-zCoureah62m9yQOTJ-21" target="KX-zCoureah62m9yQOTJ-1" edge="1">
          <mxGeometry relative="1" as="geometry" />
        </mxCell>
        <mxCell id="KX-zCoureah62m9yQOTJ-21" value="&lt;u&gt;id&lt;/u&gt;" style="ellipse;whiteSpace=wrap;html=1;align=center;" parent="1" vertex="1">
          <mxGeometry x="250" y="73" width="67" height="34" as="geometry" />
        </mxCell>
        <mxCell id="KX-zCoureah62m9yQOTJ-25" value="" style="rounded=0;orthogonalLoop=1;jettySize=auto;html=1;entryX=0.5;entryY=0;entryDx=0;entryDy=0;endArrow=none;endFill=0;" parent="1" source="KX-zCoureah62m9yQOTJ-23" target="KX-zCoureah62m9yQOTJ-1" edge="1">
          <mxGeometry relative="1" as="geometry" />
        </mxCell>
        <mxCell id="KX-zCoureah62m9yQOTJ-23" value="이름" style="ellipse;whiteSpace=wrap;html=1;align=center;" parent="1" vertex="1">
          <mxGeometry x="325.5" y="73" width="67" height="34" as="geometry" />
        </mxCell>
        <mxCell id="KX-zCoureah62m9yQOTJ-27" style="rounded=0;orthogonalLoop=1;jettySize=auto;html=1;endArrow=none;endFill=0;entryX=0.5;entryY=1;entryDx=0;entryDy=0;" parent="1" source="KX-zCoureah62m9yQOTJ-26" target="KX-zCoureah62m9yQOTJ-2" edge="1">
          <mxGeometry relative="1" as="geometry" />
        </mxCell>
        <mxCell id="KX-zCoureah62m9yQOTJ-26" value="&lt;u&gt;id&lt;/u&gt;" style="ellipse;whiteSpace=wrap;html=1;align=center;" parent="1" vertex="1">
          <mxGeometry x="266" y="443" width="67" height="34" as="geometry" />
        </mxCell>
        <mxCell id="KX-zCoureah62m9yQOTJ-29" style="rounded=0;orthogonalLoop=1;jettySize=auto;html=1;endArrow=none;endFill=0;entryX=0.5;entryY=1;entryDx=0;entryDy=0;" parent="1" source="KX-zCoureah62m9yQOTJ-28" target="KX-zCoureah62m9yQOTJ-2" edge="1">
          <mxGeometry relative="1" as="geometry" />
        </mxCell>
        <mxCell id="KX-zCoureah62m9yQOTJ-28" value="이름" style="ellipse;whiteSpace=wrap;html=1;align=center;" parent="1" vertex="1">
          <mxGeometry x="367" y="443" width="67" height="34" as="geometry" />
        </mxCell>
        <mxCell id="KX-zCoureah62m9yQOTJ-35" style="rounded=0;orthogonalLoop=1;jettySize=auto;html=1;endArrow=none;endFill=0;" parent="1" source="KX-zCoureah62m9yQOTJ-33" target="KX-zCoureah62m9yQOTJ-16" edge="1">
          <mxGeometry relative="1" as="geometry" />
        </mxCell>
        <mxCell id="KX-zCoureah62m9yQOTJ-33" value="시작 시간" style="ellipse;whiteSpace=wrap;html=1;align=center;" parent="1" vertex="1">
          <mxGeometry x="760.5" y="686" width="77" height="41" as="geometry" />
        </mxCell>
        <mxCell id="KX-zCoureah62m9yQOTJ-36" style="rounded=0;orthogonalLoop=1;jettySize=auto;html=1;endArrow=none;endFill=0;" parent="1" source="KX-zCoureah62m9yQOTJ-34" target="KX-zCoureah62m9yQOTJ-16" edge="1">
          <mxGeometry relative="1" as="geometry" />
        </mxCell>
        <mxCell id="KX-zCoureah62m9yQOTJ-34" value="끝 시간" style="ellipse;whiteSpace=wrap;html=1;align=center;" parent="1" vertex="1">
          <mxGeometry x="868" y="683" width="77" height="41" as="geometry" />
        </mxCell>
        <mxCell id="KX-zCoureah62m9yQOTJ-38" style="rounded=0;orthogonalLoop=1;jettySize=auto;html=1;entryX=0.5;entryY=1;entryDx=0;entryDy=0;endArrow=none;endFill=0;" parent="1" source="KX-zCoureah62m9yQOTJ-37" target="KX-zCoureah62m9yQOTJ-16" edge="1">
          <mxGeometry relative="1" as="geometry" />
        </mxCell>
        <mxCell id="KX-zCoureah62m9yQOTJ-37" value="번호" style="ellipse;whiteSpace=wrap;html=1;align=center;" parent="1" vertex="1">
          <mxGeometry x="672" y="686" width="77" height="41" as="geometry" />
        </mxCell>
        <mxCell id="KX-zCoureah62m9yQOTJ-39" value="" style="endArrow=none;html=1;rounded=0;dashed=1;dashPattern=1 2;" parent="1" edge="1">
          <mxGeometry relative="1" as="geometry">
            <mxPoint x="682" y="715" as="sourcePoint" />
            <mxPoint x="739" y="715" as="targetPoint" />
          </mxGeometry>
        </mxCell>
        <mxCell id="KX-zCoureah62m9yQOTJ-40" value="" style="resizable=0;html=1;whiteSpace=wrap;align=right;verticalAlign=bottom;" parent="KX-zCoureah62m9yQOTJ-39" connectable="0" vertex="1">
          <mxGeometry x="1" relative="1" as="geometry" />
        </mxCell>
        <mxCell id="KX-zCoureah62m9yQOTJ-43" value="" style="edgeStyle=orthogonalEdgeStyle;rounded=0;orthogonalLoop=1;jettySize=auto;html=1;endArrow=none;endFill=0;" parent="1" source="KX-zCoureah62m9yQOTJ-42" target="KX-zCoureah62m9yQOTJ-3" edge="1">
          <mxGeometry relative="1" as="geometry" />
        </mxCell>
        <mxCell id="KX-zCoureah62m9yQOTJ-42" value="&lt;u&gt;요일&lt;/u&gt;" style="ellipse;whiteSpace=wrap;html=1;align=center;" parent="1" vertex="1">
          <mxGeometry x="896" y="351" width="67" height="34" as="geometry" />
        </mxCell>
        <mxCell id="KX-zCoureah62m9yQOTJ-44" value="N" style="text;html=1;align=center;verticalAlign=middle;resizable=0;points=[];autosize=1;strokeColor=none;fillColor=none;" parent="1" vertex="1">
          <mxGeometry x="808" y="412" width="27" height="26" as="geometry" />
        </mxCell>
        <mxCell id="KX-zCoureah62m9yQOTJ-45" value="M" style="text;html=1;align=center;verticalAlign=middle;resizable=0;points=[];autosize=1;strokeColor=none;fillColor=none;" parent="1" vertex="1">
          <mxGeometry x="807" y="552" width="28" height="26" as="geometry" />
        </mxCell>
        <mxCell id="jr3tpa4kGGIkxtq-03vE-4" style="rounded=0;orthogonalLoop=1;jettySize=auto;html=1;endArrow=none;endFill=0;" edge="1" parent="1" source="jr3tpa4kGGIkxtq-03vE-1" target="KX-zCoureah62m9yQOTJ-23">
          <mxGeometry relative="1" as="geometry" />
        </mxCell>
        <mxCell id="jr3tpa4kGGIkxtq-03vE-1" value="이름" style="ellipse;whiteSpace=wrap;html=1;align=center;" vertex="1" parent="1">
          <mxGeometry x="367" y="15" width="67" height="34" as="geometry" />
        </mxCell>
        <mxCell id="jr3tpa4kGGIkxtq-03vE-3" style="rounded=0;orthogonalLoop=1;jettySize=auto;html=1;endArrow=none;endFill=0;" edge="1" parent="1" source="jr3tpa4kGGIkxtq-03vE-2" target="KX-zCoureah62m9yQOTJ-23">
          <mxGeometry relative="1" as="geometry" />
        </mxCell>
        <mxCell id="jr3tpa4kGGIkxtq-03vE-2" value="성" style="ellipse;whiteSpace=wrap;html=1;align=center;" vertex="1" parent="1">
          <mxGeometry x="285" y="15" width="67" height="34" as="geometry" />
        </mxCell>
      </root>
    </mxGraphModel>
  </diagram>
</mxfile>
